<svg xmlns="http://www.w3.org/2000/svg" xmlns:xlink="http://www.w3.org/1999/xlink" viewBox="0 0 623.06 635.75"><defs><style>.cls-1{fill:none;}.cls-2{fill:#fff;}.cls-3{clip-path:url(#clip-path);}</style><clipPath id="clip-path"><ellipse class="cls-1" cx="50.99" cy="179.08" rx="49.59" ry="43.05"/></clipPath></defs><title>Accessories_2</title><g id="Livello_2" data-name="Livello 2"><g id="Livello_1-2" data-name="Livello 1"><path class="cls-2" d="M500,100.8,477,84a5,5,0,0,0-7,1.1l-13,17.93-14,19.26a5,5,0,0,0,1.1,7l23.06,16.77a5,5,0,0,0,7-1.1L501,107.9l.09-.13A5,5,0,0,0,500,100.8Z"/><path class="cls-2" d="M604.35,62.53,603,61.48h0l-9.69-7.61-8.85-6.95a5,5,0,0,0-7,.84l-29.1,37a5,5,0,0,0,.85,7l8.85,7,0,0,9.69,7.61,0-.05,1.32,1a5,5,0,0,0,7-.84l29.1-37A5,5,0,0,0,604.35,62.53Z"/><path class="cls-2" d="M621.08,156.59l-27.79-21.07h0l-9.82-7.44h0l-.15-.11-.79-.6a5,5,0,0,0-7,1l-19.09,25.19a5,5,0,0,0,1,7l37,28.06h0l1.52,1.16a5,5,0,0,0,7-1L622,163.58A5,5,0,0,0,621.08,156.59Z"/><path class="cls-2" d="M565.46,235.41v-43a5,5,0,0,0-5-5H529.2a5,5,0,0,0-5,4.48l0,28.07v15.46A4.2,4.2,0,0,0,520,239.6v53.65a4.19,4.19,0,0,0,4.19,4.18V426a7.7,7.7,0,0,0,7.7,7.7h25.85a7.7,7.7,0,0,0,7.7-7.7V297.43a4.18,4.18,0,0,0,4.18-4.18V239.6A4.19,4.19,0,0,0,565.46,235.41Zm-30.17,58.06a4.62,4.62,0,1,1,4.62-4.62A4.62,4.62,0,0,1,535.29,293.47Zm-3.85-26.36a13.4,13.4,0,1,1,13.39,13.4A13.41,13.41,0,0,1,531.44,267.11Zm22.94,26.36a4.62,4.62,0,1,1,4.62-4.62A4.62,4.62,0,0,1,554.38,293.47Z"/><path class="cls-2" d="M544.83,257.57a9.55,9.55,0,1,0,9.55,9.54A9.55,9.55,0,0,0,544.83,257.57Zm0,14.16a4.62,4.62,0,1,1,4.62-4.62A4.62,4.62,0,0,1,544.83,271.73Z"/><path class="cls-2" d="M554.09,164.89a10.27,10.27,0,0,1-1.68-1.61,12.78,12.78,0,0,1-3,.38H534.43a13,13,0,0,1-7.74-2.54l-37.53-27.53-7.25,10,37.5,27.5a25.29,25.29,0,0,0,15,4.92h14.94a25.25,25.25,0,0,0,13.89-4.14Z"/><path class="cls-2" d="M606.27,57a6.14,6.14,0,0,0-1.79-7.4h0a6.16,6.16,0,0,0-7.61,0Z"/><path class="cls-2" d="M514.52,251.77h-14a5,5,0,0,0-5,5v20.08a5,5,0,0,0,5,5h14Z"/><path class="cls-2" d="M596.67,131.18,617.83,104a6.16,6.16,0,0,0-1.08-8.65h0a6.16,6.16,0,0,0-8.64,1.08l-21.26,27.31Z"/><path class="cls-2" d="M455.36,89.68l2.95,2.17,7.23-9.95v0l-2.91-2.13A6.15,6.15,0,0,0,454,81.07h0A6.16,6.16,0,0,0,455.36,89.68Z"/><path class="cls-2" d="M564.33,110.75l-9.69-7.61-9.5,12.11a13.1,13.1,0,0,1-10.3,5H522.16a13.15,13.15,0,0,1-7.74-2.53l-8.95-6.57-7.24,10,8.91,6.53a25.38,25.38,0,0,0,15,4.92h12.68a25.43,25.43,0,0,0,20-9.71l9.5-12.11Z"/><path class="cls-2" d="M581.1,185.36l-3.45,4.16a13,13,0,0,1-6.69,4.26v12.55a25.35,25.35,0,0,0,16.17-9l3.8-4.57Z"/><path class="cls-2" d="M518.73,194.25H471.29a5,5,0,0,0-5,5v2.34a5,5,0,0,0,5,5h47.43Z"/><polygon class="cls-2" points="262.73 251.09 262.73 289.66 185.64 455.82 179.53 452.99 173.29 450.19 262.73 251.09"/><path class="cls-2" d="M122.06,564.24l8-17.74,5.67,2.55,5.5,2.55L133,569.24a3.31,3.31,0,0,1-4.37,1.62l-5-2.27A3.29,3.29,0,0,1,122.06,564.24Z"/><path class="cls-2" d="M151.35,542.56a5,5,0,0,1-6.22,1.77l-6-2.8L133,538.8a5,5,0,0,1-2.73-5.86L152,455.88a4.94,4.94,0,0,1,6.79-3.17l17.27,7.76,17.25,8a5,5,0,0,1,2,7.21Z"/><path class="cls-2" d="M294.2,585.14a6.6,6.6,0,0,1-6.56,5.59l-8.42-.05-8.41.05a6.6,6.6,0,0,1-6.57-5.59L248.49,483.41A6.6,6.6,0,0,1,255,475.8l24.21-.14,24.3.15a6.59,6.59,0,0,1,6.48,7.61Z"/><polygon class="cls-2" points="279.23 467.41 270.98 467.46 270.98 175.63 287.48 175.63 287.48 467.46 279.23 467.41"/><path class="cls-2" d="M279.27,598.93l8.21.05V630.8a5,5,0,0,1-5,5h-6.6a5,5,0,0,1-4.95-5V599Z"/><rect class="cls-2" x="252.41" y="53.89" width="53.64" height="113.5" rx="5"/><path class="cls-2" d="M279.23,0A16.78,16.78,0,0,1,296,16.78h0a16.77,16.77,0,0,1-8.53,14.61V45.64H271V31.39a16.78,16.78,0,0,1-8.54-14.61h0A16.79,16.79,0,0,1,279.23,0Z"/><polygon class="cls-2" points="295.73 251.09 295.73 289.66 372.82 455.82 378.93 452.99 385.17 450.19 295.73 251.09"/><path class="cls-2" d="M436.4,564.24l-8-17.74-5.68,2.55-5.5,2.55,8.19,17.64a3.3,3.3,0,0,0,4.36,1.62l5-2.27A3.3,3.3,0,0,0,436.4,564.24Z"/><path class="cls-2" d="M363.1,475.68a5,5,0,0,1,2.06-7.21l17.24-8,17.28-7.76a5,5,0,0,1,6.79,3.17l21.71,77.06a5,5,0,0,1-2.74,5.86l-6.07,2.73-6,2.8a5,5,0,0,1-6.22-1.77Z"/><rect class="cls-2" x="12.38" y="176.95" width="77.23" height="47.59" rx="10"/><path class="cls-2" d="M27.1,230v42.54a8.8,8.8,0,0,0,8.8,8.8h7.78c-2.35,0-4.26-2.82-4.26-6.29V261.52H62.56v13.57c0,3.47-1.91,6.29-4.26,6.29h7.78a8.8,8.8,0,0,0,8.8-8.8V230Z"/><g class="cls-3"><polygon class="cls-2" points="34.97 171.45 7.1 133.43 0 138.63 24.06 171.45 34.97 171.45"/><rect class="cls-2" x="46.59" y="118.27" width="8.8" height="53.18"/><polygon class="cls-2" points="77.92 171.45 101.98 138.63 94.88 133.43 67.01 171.45 77.92 171.45"/></g></g></g></svg>