<svg xmlns="http://www.w3.org/2000/svg" viewBox="0 0 382.04 288.18"><defs><style>.cls-1{fill:#fff;}</style></defs><title>Body</title><g id="Livello_2" data-name="Livello 2"><g id="Livello_1-2" data-name="Livello 1"><path class="cls-1" d="M191,106.6a60.62,60.62,0,1,1-60.62,60.62A60.68,60.68,0,0,1,191,106.6m0-22.26a82.88,82.88,0,1,0,82.88,82.88A82.88,82.88,0,0,0,191,84.34Z"/><path class="cls-1" d="M352,46.26H340V35.09a10,10,0,0,0-10-10H294.58a10,10,0,0,0-10,10V46.26H234.5V10a10,10,0,0,0-10-10h-67a10,10,0,0,0-10,10V46.26H82.2c0-1.52.32-3.3-.44-3.86-1.23-.89-4.61,1.71-6,1s-1.22-5-2.67-5.43-3.83,3.06-5.35,2.83-2.68-4.33-4.22-4.33-2.74,4.09-4.22,4.33S55.43,37.53,54,38s-1.33,4.74-2.67,5.43-4.74-1.91-6-1c-.77.56-.49,2.34-.44,3.86H30a30,30,0,0,0-30,30V258.18a30,30,0,0,0,30,30H352a30,30,0,0,0,30-30V76.26A30,30,0,0,0,352,46.26ZM48.5,69.43c8.62,0,18.62,3.32,18.62,7.41s-10,7.4-18.62,7.4-18.62-3.32-18.62-7.4S39.87,69.43,48.5,69.43Zm18.28,98.38a162.08,162.08,0,0,0,1.53,18.93c.17,1.58.47,3.14.72,4.71s.48,3.13.83,4.68c.68,3.1,1.24,6.23,2.06,9.3A234.48,234.48,0,0,0,84.27,241.6c-1.48-2.83-3-5.67-4.37-8.56l-2-4.38c-.66-1.46-1.36-2.91-1.94-4.41-1.15-3-2.42-5.95-3.41-9L71,210.67,69.66,206c-1-3.08-1.63-6.23-2.38-9.37-.38-1.56-.62-3.16-.94-4.74s-.64-3.16-.84-4.76l-.67-4.8c-.2-1.6-.32-3.21-.48-4.82l-.23-2.41L64,172.71c-.07-1.61-.21-3.22-.22-4.83a138.15,138.15,0,0,1,4.54-38.36,124.68,124.68,0,0,1,6.43-18.22c1.34-2.92,2.76-5.81,4.33-8.61a71.3,71.3,0,0,1,4.43-7A12.53,12.53,0,0,1,81,97.77,27.05,27.05,0,0,1,77,100a50.41,50.41,0,0,1-8.68,2.86,83.45,83.45,0,0,1-18.09,2.22,72.54,72.54,0,0,1-18.15-1.89,42,42,0,0,1-8.61-3.11,23.39,23.39,0,0,1-7.24-5.48,25.35,25.35,0,0,0,7.65,4.59,47.72,47.72,0,0,0,8.54,2.48,73.14,73.14,0,0,0,8.85,1.16c3,.22,6,.32,8.93.25s6-.21,8.93-.5,5.93-.7,8.86-1.24a61.06,61.06,0,0,0,8.65-2.25,27.4,27.4,0,0,0,4.09-1.76,11.63,11.63,0,0,0,3.51-2.73,103.57,103.57,0,0,0-8.17,17.27,143.95,143.95,0,0,0-8.58,37A148.37,148.37,0,0,0,66.78,167.81ZM191,266a98.79,98.79,0,1,1,98.79-98.78A98.78,98.78,0,0,1,191,266Zm151.72,6h-15V257h15Z"/></g></g></svg>