<svg xmlns="http://www.w3.org/2000/svg" viewBox="0 0 415 325"><defs><style>.cls-1{fill:#fff;}</style></defs><title>Filters</title><g id="Livello_2" data-name="Livello 2"><g id="Livello_1-2" data-name="Livello 1"><path class="cls-1" d="M381.57,80.32h24.86c-1.26-5.56-2.64-10.92-4.14-16H377.51Q379.73,72,381.57,80.32Z"/><path class="cls-1" d="M410.92,104.69H386a407.85,407.85,0,0,1,4,57.81c0,44-6.62,85.45-18.64,116.7-8.74,22.71-19.76,38.35-32,45.8H352.5C387,325,415,252.25,415,162.5A399.69,399.69,0,0,0,410.92,104.69Z"/><path class="cls-1" d="M410.16,99.69q-1.2-7.38-2.65-14.37H382.63c1,4.68,1.83,9.48,2.61,14.37Z"/><path class="cls-1" d="M371.36,45.8q2.49,6.47,4.66,13.49h24.76C389.31,23.09,371.94,0,352.5,0H339.36C351.6,7.45,362.62,23.09,371.36,45.8Z"/><path class="cls-1" d="M322.5,0c-14.79,0-28.38,13.37-39.08,35.69C297.69,70.15,305,116.46,305,162.5s-7.31,92.35-21.58,126.81C294.12,311.63,307.71,325,322.5,325,357,325,385,252.25,385,162.5S357,0,322.5,0Z"/><path class="cls-1" d="M251.57,80.32h24.86c-1.26-5.56-2.64-10.92-4.14-16H247.51Q249.73,72,251.57,80.32Z"/><path class="cls-1" d="M280.92,104.69H256a407.85,407.85,0,0,1,4,57.81c0,44-6.62,85.45-18.64,116.7-8.74,22.71-19.76,38.35-32,45.8H222.5C257,325,285,252.25,285,162.5A399.69,399.69,0,0,0,280.92,104.69Z"/><path class="cls-1" d="M280.16,99.69q-1.2-7.38-2.65-14.37H252.63c1,4.68,1.83,9.48,2.61,14.37Z"/><path class="cls-1" d="M241.36,45.8q2.49,6.47,4.66,13.49h24.76C259.31,23.09,241.94,0,222.5,0H209.36C221.6,7.45,232.62,23.09,241.36,45.8Z"/><path class="cls-1" d="M192.5,0c-14.79,0-28.38,13.37-39.08,35.69C167.69,70.15,175,116.46,175,162.5s-7.31,92.35-21.58,126.81C164.12,311.63,177.71,325,192.5,325,227,325,255,252.25,255,162.5S227,0,192.5,0Z"/><path class="cls-1" d="M121.57,80.32h24.86c-1.26-5.56-2.64-10.92-4.14-16H117.51Q119.73,72,121.57,80.32Z"/><path class="cls-1" d="M150.92,104.69H126a407.85,407.85,0,0,1,4,57.81c0,44-6.62,85.45-18.64,116.7-8.74,22.71-19.76,38.35-32,45.8H92.5C127,325,155,252.25,155,162.5A399.69,399.69,0,0,0,150.92,104.69Z"/><path class="cls-1" d="M150.16,99.69q-1.2-7.38-2.65-14.37H122.63c1,4.68,1.83,9.48,2.61,14.37Z"/><path class="cls-1" d="M111.36,45.8q2.49,6.47,4.66,13.49h24.76C129.31,23.09,111.94,0,92.5,0H79.36C91.6,7.45,102.62,23.09,111.36,45.8Z"/><ellipse class="cls-1" cx="62.5" cy="162.5" rx="62.5" ry="162.5"/></g></g></svg>