<svg xmlns="http://www.w3.org/2000/svg" viewBox="0 0 472.5 625"><defs><style>.cls-1{fill:#fff;}</style></defs><title>Lenses</title><g id="Livello_2" data-name="Livello 2"><g id="Livello_1-2" data-name="Livello 1"><path class="cls-1" d="M242,528.63c-18.8,0-37.54-2.23-52-6.17v11.42a5.13,5.13,0,0,0,2.94,4.65c6.37,3,23,9.47,49.06,9.47s42.68-6.45,49.06-9.47a5.15,5.15,0,0,0,2.94-4.65V522.45C279.67,526.39,260.89,528.63,242,528.63Z"/><path class="cls-1" d="M336,43,324.66,63.8a2.27,2.27,0,0,1-4.08-.56C316.17,48.83,302.08,3.49,288,1c0,0-23-1-46-1s-46,1-46,1c-14.1,2.49-28.19,47.83-32.6,62.24a2.27,2.27,0,0,1-4.08.56L148,43c-5-5-6-1.5-6,0,0,25,4.81,93.4,4.81,93.4A7.19,7.19,0,0,0,150,142l5.7,30.17a12.38,12.38,0,0,0,7.8,9.27l.58.22,1.7.57c.18.06,18.51,9.87,76.22,9.87,58,0,76-9.81,76.2-9.87l1.72-.58.57-.21a12.36,12.36,0,0,0,7.8-9.27L334,142a7.18,7.18,0,0,0,3.18-5.6S342,68,342,43C342,41.5,341,38,336,43Z"/><path class="cls-1" d="M318.41,231.67C313.23,233,292.7,241.4,242,241.4s-71.22-8.36-76.42-9.73a4.12,4.12,0,0,0-2.58,3.85v38.16a4.74,4.74,0,0,0,3.15,4.47h0v.09c3,.83,22.71,9.75,75.82,9.75,53.4,0,72.9-8.92,75.81-9.75v-.09h0a4.75,4.75,0,0,0,3.16-4.47l0-38.16C321,233.72,320.55,232.15,318.41,231.67Z"/><path class="cls-1" d="M165.05,187.23l.49,39.22.23.08c.18.06,18.51,9.87,76.22,9.87,58,0,76-9.81,76.2-9.87l.25-.08.48-39.22c-4.22,1.17-24.35,9.87-76.93,9.87S169.27,188.4,165.05,187.23Z"/><path class="cls-1" d="M242,293c-48.73,0-69.6-8-75.75-9.56l.18,14.85a80,80,0,0,1,15.88,7.08,17.05,17.05,0,0,1,8.2,14.56V326a22.76,22.76,0,0,1,1.23,11.56c-.69,4.54-1,6.83-1.09,7.95,0,.37-.08.72-.13,1.07,11.83,2,28.54,3.8,51.48,3.8,50,0,70.25-8.31,75-9.54l.7-57.42C311.58,285,290.72,293,242,293Z"/><path class="cls-1" d="M309,405l-.63-1.06a20.52,20.52,0,0,1-2.84-10.42V380.16l.27-.79c.6-1.76,3.33-7,14.9-11.83l.26-16a5.85,5.85,0,0,0-3.55-5.46l-.21-.09c-6.81,1.61-27.84,9.42-75.18,9.42-23.38,0-40.33-1.9-52.33-4a20.67,20.67,0,0,1-6.53,11.28,14.93,14.93,0,0,1-2.63,5.86,24.48,24.48,0,0,1-4.5,4,10.38,10.38,0,0,1,1.5,6v35.16c0,.09,0,.2,0,.31,11.18,2.81,31.33,6.71,64.5,6.71,36.47,0,57.12-4.66,67.48-7.48Z"/><path class="cls-1" d="M308.5,427.52c0-1.5,0-4.38,2-6.59l-.57-.44-.15-2.36c-10.85,2.79-31.65,7.57-67.77,7.57-33.67,0-54-4.16-65.43-7a7.7,7.7,0,0,1-1.21,1.88v4c0,8,0,15.12-4.09,19l-.59,23.95a9.09,9.09,0,0,1,2.92,1.75L180,475v16.74a6.74,6.74,0,0,0,1.35,4.06L183,498v14s-1,4,7,5v.26c14.2,4,33,6.37,52,6.37s38-2.32,52-6.38V517a17.94,17.94,0,0,0,2.54-.49l.17,0C301.73,515,301,512,301,512V498l1.64-2.2a6.75,6.75,0,0,0,1.36-4.06V475l5.4-5.69h0Z"/><path class="cls-1" d="M460.63,569.56l0-.21.94-.52a5.88,5.88,0,0,0,2.95-5l.89-42.32c0-2.37.63-4.52-1.55-5.46l-.31-.14c-9.62,4.31-31.11,11-72.08,11s-62.47-6.66-72.08-11l-.32.14c-2.18.94-1.59,3.09-1.55,5.46l.89,42.32a5.88,5.88,0,0,0,2.95,5l.94.52s0,.07,0,.17c9.37,4,30.2,10.18,69.14,10.18S451.3,573.55,460.63,569.56Z"/><path class="cls-1" d="M319.66,485.84l-.12,24.59c7.6,3.76,28.48,11.47,72,11.47s64.34-7.71,71.95-11.47l-.12-24.59c-9.73,4.31-31.2,10.86-71.83,10.86S329.39,490.15,319.66,485.84Z"/><path class="cls-1" d="M313.5,427.52l1,46.16c0,2,3.26,5.8,5.15,6.47h0v.14c7.71,3.78,28.61,11.4,71.82,11.4s64.09-7.62,71.81-11.4v-.14h0c1.89-.67,5.16-4.46,5.16-6.47l1-46.16c0-1.48,0-2.84-1.08-3.58-5.59,3.38-26.51,13.46-76.92,13.46s-71.34-10.08-76.93-13.46C313.52,424.68,313.5,426,313.5,427.52Z"/><path class="cls-1" d="M391.5,363c-74.82,0-81,18-81,18v12.48a15.48,15.48,0,0,0,2.15,7.88l1.23,2.1.88,14.47,1.27,1c.3.23,18.52,13.48,75.47,13.48,57.57,0,75.28-13.33,75.46-13.47l1.27-1,.88-14.47,1.23-2.1a15.49,15.49,0,0,0,2.16-7.88V381S466.31,363,391.5,363Zm0,35.6c-35.7,0-64.63-5-64.63-11.19s28.93-11.2,64.63-11.2,64.62,5,64.62,11.2S427.19,398.6,391.5,398.6Z"/><path class="cls-1" d="M391.49,605.63c-18.79,0-37.53-2.23-52-6.17v11.42a5.13,5.13,0,0,0,2.94,4.65c6.37,3,23,9.47,49.06,9.47s42.68-6.45,49.05-9.47a5.14,5.14,0,0,0,2.95-4.65V599.45C429.18,603.39,410.4,605.63,391.49,605.63Z"/><path class="cls-1" d="M391.5,584.7c-35.59,0-56.47-5-67.65-9.16,2.12,6.88,6.75,17.22,15.65,18.46v.27c14.2,4,33,6.36,52,6.36s38-2.32,52-6.38V594c8.89-1.24,13.52-11.58,15.64-18.46C448,579.68,427.08,584.7,391.5,584.7Z"/><path class="cls-1" d="M93.5,540c39.24,0,59.93-7.09,69.17-11.64h0l.94-.52a5.88,5.88,0,0,0,3-5l.89-42.32c0-2.3.59-4.4-1.38-5.38-9.44,4.93-31,12.75-72.56,12.75s-63.13-7.82-72.57-12.75c-2,1-1.41,3.08-1.38,5.38l.89,42.32a5.88,5.88,0,0,0,2.95,5l.85.48a77.32,77.32,0,0,0,9.89,4C44.74,535.81,63.65,540,93.5,540Z"/><path class="cls-1" d="M20.67,440.92l.72,28.76a67.94,67.94,0,0,0,12.74,5.52c10.61,3.51,29.52,7.7,59.37,7.7,44.14,0,64.81-9,72.1-13.2l.72-28.78c3.43-1.41,4-5.35,4-16.29-5.9,4-27,15.27-76.84,15.27s-70.95-11.27-76.85-15.27C16.66,435.57,17.24,439.51,20.67,440.92Z"/><path class="cls-1" d="M93.49,564.63c-18.79,0-37.53-2.23-52-6.17v11.42a5.13,5.13,0,0,0,2.94,4.65c6.37,3,23,9.47,49.06,9.47s42.68-6.45,49.05-9.47a5.14,5.14,0,0,0,2.95-4.65V558.45C131.18,562.39,112.4,564.63,93.49,564.63Z"/><path class="cls-1" d="M16.56,418.1l.09,0h0v0l1.47,1.32c.14.11,4.64,3.91,16,7.67,10.61,3.51,29.52,7.7,59.37,7.7,57.48,0,75.16-15.21,75.33-15.36l1.48-1.33v0h0l.09,0,.26-.23.07.08c1.5-.78,1.74-2.43,1.74-4.27V378.52c0-1.7,0-3.25-1.62-3.87h0l-.07-.27c-3.88,2.4-23.93,12.87-77.31,12.87s-73.44-10.48-77.32-12.87l-.07.27h0c-1.59.62-1.61,2.17-1.61,3.87v35.16c0,1.84.23,3.49,1.73,4.27l.07-.08Z"/><path class="cls-1" d="M93.5,545c-37.47,0-58.67-6.35-69.41-11.21.43,6.2,3.43,15.92,17.41,19.21v.27c14.2,4,33,6.36,52,6.36s38-2.32,52-6.38V553c14-3.29,17-13,17.4-19.21C152.16,538.65,131,545,93.5,545Z"/><path class="cls-1" d="M185.5,327v-7.07a12,12,0,0,0-5.77-10.27C169.94,303.78,145.8,294,93.5,294s-76.45,9.78-86.24,15.66A12,12,0,0,0,1.5,319.93V327a17.78,17.78,0,0,0-1.3,9.82c.35,2.25.89,5.93,1.12,8.2.92,8.94,3.49,12.15,7.15,15a11.92,11.92,0,0,0,1.95,5.44c1.6,2,6.69,5.22,6.69,5.22l0,.11.44.32c.18.13,18.41,12.67,76,12.67,57.86,0,75.79-12.54,76-12.67l.44-.32,0-.11s5.09-3.2,6.69-5.22a11.92,11.92,0,0,0,2-5.44c3.66-2.82,6.23-6,7.15-15,.23-2.27.77-5.95,1.12-8.2A17.78,17.78,0,0,0,185.5,327Zm-92,10.88c-56.45,0-53.57-9.47-53.57-9.47C43.68,320.06,70.19,312,93.5,312s49.81,8.06,53.56,16.41C147.06,328.41,149.94,337.88,93.5,337.88Z"/></g></g></svg>